HIERARCHY
ROOT Hips
{
	OFFSET	0.00	0.00	0.00
	CHANNELS 6 Xposition Yposition Zposition Zrotation Xrotation Yrotation
	JOINT Spine
	{
		OFFSET	 0.00	0.01	 0.00
		CHANNELS 3 Zrotation Xrotation Yrotation
		JOINT Spine1
		{
			OFFSET	 0.00	 2.45913012437421	 0.00
			CHANNELS 3 Zrotation Xrotation Yrotation
            JOINT Neck
            {
                OFFSET	 0.00	 2.48462964506057	 0.00
                CHANNELS 3 Zrotation Xrotation Yrotation
                JOINT Head
                {
                    OFFSET	 0.00	 0.927524780924562	 0.00
                    CHANNELS 3 Zrotation Xrotation Yrotation
                    End Site 
                    {
                        OFFSET	 0.00	 1.14999962169752	 0.00
                    }
                }
            }
			JOINT LeftShoulder
			{
				OFFSET	 0.00	 2.48462964506057	 0.00
				CHANNELS 3 Zrotation Xrotation Yrotation
				JOINT LeftUpArm
				{
					OFFSET	 0.00	 1.24881979654096	 0.00
					CHANNELS 3 Zrotation Xrotation Yrotation
					JOINT LeftForeArm
					{
						OFFSET	 0.00	2.59758046908119	 0.00
						CHANNELS 3 Zrotation Xrotation Yrotation
						JOINT LeftHand
						{
							OFFSET	 0.00	2.45542024364365	 0.00
							CHANNELS 3 Zrotation Xrotation Yrotation
							JOINT LeftHandThumb 
							{
								OFFSET	 0.00	0.00	 0.00
								CHANNELS 3 Zrotation Xrotation Yrotation
								End Site
								{
									OFFSET	 0.00	0.00	1.00000003353624
								}
							}
							JOINT L_Wrist_End 
							{
								OFFSET	 0.00	0.99999967115358	 0.00
								CHANNELS 3 Zrotation Xrotation Yrotation
								End Site 
								{
									OFFSET	 0.00	 0.00	 0.00
								}
							}
						}
					}
				}
			}
			JOINT RightShoulder
			{
				OFFSET	 0.00	 2.48462964506057	 0.00
				CHANNELS 3 Zrotation Xrotation Yrotation
				JOINT RightUpArm
				{
					OFFSET	 0.00	 1.24881979654096	 0.00
					CHANNELS 3 Zrotation Xrotation Yrotation
					JOINT RightForeArm
					{
						OFFSET	 0.00	2.59758046908119	 0.00
						CHANNELS 3 Zrotation Xrotation Yrotation
						JOINT RightHand
						{
							OFFSET	 0.00	2.45542024364365	 0.00
							CHANNELS 3 Zrotation Xrotation Yrotation
							JOINT RightHandThumb 
							{
								OFFSET	 0.00	0.00	 0.00
								CHANNELS 3 Zrotation Xrotation Yrotation
								End Site
								{
									OFFSET	 0.00	0.00	1.00000003353624
								}
							}
							JOINT R_Wrist_End 
							{
								OFFSET	 0.00	0.99999967115358	 0.00
								CHANNELS 3 Zrotation Xrotation Yrotation
								End Site 
								{
									OFFSET	 0.00	 0.00	 0.00
								}
							}
						}
					}
				}
			}
		}
	}
	JOINT LeftUpLeg
	{
		OFFSET	 1.2719394002717	 0.00	 0.00
		CHANNELS 3 Zrotation Xrotation Yrotation
		JOINT LeftLowLeg
		{
			OFFSET	 0.00	-4.3429100912261	 0.00
			CHANNELS 3 Zrotation Xrotation Yrotation
			JOINT LeftFoot
			{
				OFFSET	 0.00	-4.48767017425826	 0.00
				CHANNELS 3 Zrotation Xrotation Yrotation
				JOINT LeftToeBase
                {
                    OFFSET	 0.00	0.00	 1.51507020887566
                    CHANNELS 3 Zrotation Xrotation Yrotation
                    End Site 
                    {
                        OFFSET	 0.00	0.00	 0.75000010571191
                    }
                }
			}
		}
	}
	JOINT RightUpLeg
	{
		OFFSET	 -1.2719393604653	 0.00	 0.00
		CHANNELS 3 Zrotation Xrotation Yrotation
		JOINT RightLowLeg
		{
			OFFSET	 0.00	-4.3429100912261	 0.00
			CHANNELS 3 Zrotation Xrotation Yrotation
			JOINT RightFoot
			{
				OFFSET	 0.00	-4.48767017425826	 0.00
				CHANNELS 3 Zrotation Xrotation Yrotation
				JOINT RightToeBase
                {
                    OFFSET	 0.00	0.00	 1.51507020887566
                    CHANNELS 3 Zrotation Xrotation Yrotation
                    End Site 
                    {
                        OFFSET	 0.00	0.00	 0.749999965609858
                    }
                }   
			}
		}
	}
}
MOTION 
Frames:	11 
Frame Time: 0.02 
  -2.090410003662109 0.982125015258789 10.440899658203126 -3.7306 82.4748 10.2333 4.91415 -17.1291 0.228977 8.63741 32.4962 -4.21062 -13.0774 51.6897 13.6247 -12.8249 -61.9665 -24.6002 -110.224396 -1.72295 -17.7166 -1.68208 19.5897 19.5895 0.0 55.2338 0.0 11.1874 -20.4399 58.2143 0.0 0.0 0.0 0.0 0.0 0.0 117.7195 1.57656 -3.01713 33.6265 12.4609 -12.2042 0.0 28.0061 0.0 -8.32243 -2.90838 14.3665 0.0 0.0 0.0 0.0 0.0 0.0 7.2395 2.81822 3.68234 0.0 10.5844 0.0 -5.95433 12.332581 0.433543 0.0 -12.67517 0.0 11.6897 7.96124 10.3498 0.0 9.22779 0.0 18.091 4.1913996 -32.0214 0.0 -14.874974 0.0 
  -2.1050799560546873 0.9834300231933594 10.4402001953125 -3.86314 82.5104 10.242 5.00206 -17.18 0.389587 8.14754 32.641 -4.34396 -12.9403 51.2306 13.6961 -12.6123 -62.045 -24.1815 -110.4098 -1.66534 -17.428 -2.25077 19.5661 20.2878 0.0 59.3427 0.0 12.296 -19.2707 57.6158 0.0 0.0 0.0 0.0 0.0 0.0 117.8674 1.67413 -2.87471 34.3202 12.4297 -12.8325 0.0 27.9382 0.0 -7.93879 -2.82174 13.5826 0.0 0.0 0.0 0.0 0.0 0.0 7.3163 2.86345 3.84814 0.0 10.4383 0.0 -5.94693 12.41868 0.423053 0.0 -12.69498 0.0 11.7677 7.91592 10.5845 0.0 9.23133 0.0 18.1301 4.1783 -32.1258 0.0 -14.734866 0.0 
  -2.1200999450683593 0.9873459625244141 10.439000244140624 -4.07655 82.5781 10.1478 5.15184 -17.1973 0.666904 7.57009 32.7466 -4.41115 -12.91 50.847 13.9317 -12.2915 -62.1365 -23.6068 -110.570404 -1.59534 -17.1907 -2.72228 19.7478 21.4193 0.0 63.5504 0.0 14.0532 -17.3286 57.5697 0.0 0.0 0.0 0.0 0.0 0.0 118.0833 1.74419 -2.91069 34.9337 12.4934 -13.2835 0.0 27.8627 0.0 -7.28592 -2.88161 13.0293 0.0 0.0 0.0 0.0 0.0 0.0 7.39937 2.86175 4.15144 0.0 10.3925 0.0 -6.01752 12.45778 0.397118 0.0 -12.7394 0.0 11.7394 7.90397 9.82981 0.0 9.02391 0.0 17.7994 4.6689997 -31.3404 0.0 -14.732325 0.0 
  -2.134149932861328 0.9917079925537109 10.437900390625 -4.38157 82.6848 10.1336 5.28411 -17.2145 0.899498 7.02591 32.7535 -4.47835 -13.1214 50.5545 14.4225 -11.9784 -62.2197 -23.1341 -110.7837 -1.47753 -16.7867 -3.00852 20.0816 22.7228 0.0 67.6086 0.0 16.1412 -14.1752 57.569 0.0 0.0 0.0 0.0 0.0 0.0 118.275604 1.69181 -2.93801 35.5265 12.6148 -14.2802 0.0 27.5349 0.0 -7.17189 -2.43721 12.4631 0.0 0.0 0.0 0.0 0.0 0.0 7.47856 2.74194 4.28848 0.0 10.5144 0.0 -6.13271 12.42579 0.500369 0.0 -12.753469 0.0 11.7484 7.82363 9.63631 0.0 8.91236 0.0 17.6035 4.9258003 -30.9699 0.0 -14.613318 0.0 
  -2.1479600524902343 0.995907974243164 10.436800537109375 -5.05939 82.8304 10.4355 5.40083 -17.2708 1.07844 6.57458 32.7419 -4.54822 -13.5211 50.3191 15.1084 -11.7507 -62.2875 -22.7155 -110.9246 -1.35528 -16.4462 -3.47936 20.6257 24.1088 0.0 71.575 0.0 17.9846 -11.2537 57.4091 0.0 0.0 0.0 0.0 0.0 0.0 118.447205 1.73767 -2.84158 36.084 12.5156 -15.1806 0.0 27.32 0.0 -6.89508 -2.38672 12.048 0.0 0.0 0.0 0.0 0.0 0.0 7.58858 2.52658 4.35399 0.0 10.7693 0.0 -6.30122 12.32281 0.709546 0.0 -12.77652 0.0 11.7942 7.70083 9.71764 0.0 8.80642 0.0 17.5129 5.12926 -30.7452 0.0 -14.522396 0.0 
  -2.16156005859375 1.001520004272461 10.43699951171875 -5.78934 82.9723 10.7522 5.37202 -17.4263 1.04968 6.36867 32.9402 -4.68353 -14.3202 49.8476 16.2552 -11.6589 -62.1536 -22.5324 -111.0607 -1.20353 -16.338 -4.12755 21.2683 25.6368 0.0 75.3789 0.0 19.8308 -8.49417 57.1352 0.0 0.0 0.0 0.0 0.0 0.0 118.3714 1.90793 -2.83337 36.7735 12.4989 -15.7293 0.0 27.0703 0.0 -6.51082 -2.32216 10.944 0.0 0.0 0.0 0.0 0.0 0.0 7.69982 2.28716 4.41672 0.0 11.0748 0.0 -6.50086 12.24939 0.945659 0.0 -12.80628 0.0 11.8262 7.59834 9.723 0.0 8.64848 0.0 17.3778 5.44024 -30.449 0.0 -14.44222 0.0 
  -2.1748399353027343 1.0066799926757812 10.43699951171875 -6.57665 83.1037 11.0093 5.35926 -17.4692 1.06932 6.18588 32.976 -4.73742 -15.2214 49.5485 17.4585 -11.7263 -62.1904 -22.484 -111.3452 -0.919458 -16.0286 -4.36813 22.0002 27.2868 0.0 78.9701 0.0 21.4627 -5.47673 59.8881 0.0 0.0 0.0 0.0 0.0 0.0 118.4213 1.85298 -2.75004 37.2898 12.5333 -16.4438 0.0 26.7382 0.0 -5.77278 -2.69584 9.80524 0.0 0.0 0.0 0.0 0.0 0.0 7.81014 2.09327 4.5848 0.0 11.3789 0.0 -6.70695 12.1618805 1.19727 0.0 -12.87659 0.0 11.826 7.56557 9.54846 0.0 8.36914 0.0 17.1488 5.8893604 -29.957 0.0 -14.424174 0.0 
  -2.186390075683594 1.0125900268554688 10.436800537109375 -6.9255 83.1909 10.7979 5.4478 -17.442 1.20744 5.74875 32.9932 -4.84747 -15.9707 49.2433 18.5504 -11.6255 -62.2841 -22.2468 -111.4091 -0.569798 -15.6398 -4.64312 22.9075 28.7157 0.0 82.3291 0.0 23.1205 -2.24799 60.0542 0.0 0.0 0.0 0.0 0.0 0.0 118.5925 1.62684 -2.89108 37.7939 12.9246 -17.1149 0.0 26.2287 0.0 -5.43134 -2.69236 8.99948 0.0 0.0 0.0 0.0 0.0 0.0 7.86377 1.9435 4.74005 0.0 11.7229 0.0 -6.89666 12.06703 1.48055 0.0 -12.93321 0.0 11.7852 7.63907 9.7517 0.0 8.01102 0.0 17.0081 6.1866198 -29.7324 0.0 -14.378054 0.0 
  -2.1981100463867187 1.016320037841797 10.437099609375 -7.60935 83.2365 10.8953 5.55355 -17.442 1.31374 5.30754 33.0584 -5.01981 -16.6851 48.9483 19.639 -11.4999 -62.3626 -21.8199 -111.4387 -0.211357 -15.2451 -4.73793 23.8994 30.216 0.0 85.6511 0.0 24.5931 0.629017 61.0746 0.0 0.0 0.0 0.0 0.0 0.0 118.7919 1.72899 -3.17613 38.1999 12.9365 -17.4678 0.0 26.025 0.0 -5.31498 -2.94603 8.72554 0.0 0.0 0.0 0.0 0.0 0.0 7.97163 1.86939 4.95345 0.0 12.0217 0.0 -7.08176 11.97175 1.71305 0.0 -13.01185 0.0 11.7938 7.67596 9.87692 0.0 7.8159 0.0 16.8766 6.4913397 -29.4027 0.0 -14.293931 0.0 
  -2.2086900329589843 1.0210399627685547 10.436800537109375 -8.188 83.2983 10.8087 5.66503 -17.3937 1.43607 4.84544 33.0989 -5.18737 -17.4795 48.5404 20.8289 -11.4243 -62.4778 -21.545 -111.3138 0.0960831 -15.01 -5.16409 25.078 31.5 0.0 88.7337 0.0 24.9968 3.15035 61.985 0.0 0.0 0.0 0.0 0.0 0.0 118.959 1.75095 -2.63608 38.7745 12.5566 -18.4149 0.0 25.7008 0.0 -5.01418 -3.13036 8.42338 0.0 0.0 0.0 0.0 0.0 0.0 8.04855 1.81083 5.24062 0.0 12.3043 0.0 -7.24435 11.86061 1.97135 0.0 -13.08949 0.0 11.7864 7.65601 10.204 0.0 7.7304 0.0 16.7617 6.67375 -29.1462 0.0 -14.201711 0.0 
  -2.220189971923828 1.025070037841797 10.4356005859375 -8.8858 83.3664 10.8036 5.66553 -17.2422 1.40764 4.53202 32.8035 -5.33992 -18.6596 48.4795 22.3697 -11.3702 -62.6849 -21.3125 -111.3086 0.432634 -14.6375 -5.5043 26.3241 32.772 0.0 91.6518 0.0 25.5567 4.92535 62.0846 0.0 0.0 0.0 0.0 0.0 0.0 119.1975 1.77994 -3.02222 38.9959 12.5664 -17.8225 0.0 25.7749 0.0 -3.57945 -4.55509 7.71541 0.0 0.0 0.0 0.0 0.0 0.0 8.14981 1.76783 5.6539 0.0 12.5709 0.0 -7.37082 11.72707 2.14791 0.0 -13.1527405 0.0 11.8014 7.58903 10.5488 0.0 7.7276 0.0 16.6846 6.8240404 -28.8928 0.0 -14.1707535 0.0 
